# xmcd CD database file
#
# Track frame offsets:
#	150
#	17635
#	31655
#	47455
#	65555
#	80457
#	94410
#	107595
#	127845
#	144032
#	176550
#	194345
#	208125
#	232295
#	244050
#	263227
#	286560
#	303982
#
# Disc length: 4414 seconds
#
# Revision: 0
# Processed by: cddbd v1.5.1PL0 Copyright (c) Steve Scherf et al.
# Submitted via: CDex 1.51
#
DISCID=ef113c12
DTITLE=Manhattan Transfer  - The Manhattan Transfer Antology disc 2
DYEAR=1900
DGENRE=Jazz
TTITLE0=Four brothers
TTITLE1=Blee blop blues
TTITLE2=Candy
TTITLE3=Love for sale
TTITLE4=On a little street in Singapore
TTITLE5=Tuxedo junction
TTITLE6=That cat is high
TTITLE7=Body and soul
TTITLE8=Meet benny bailey
TTITLE9=Sing joy spring
TTITLE10=To you
TTITLE11=Down south camp meeting
TTITLE12=Until I met you
TTITLE13=Why not!
TTITLE14=Another night in Tunisia
TTITLE15=Capim
TTITLE16=A nighting sang in Berkeley square
TTITLE17=Birdland
EXTD=
EXTT0=
EXTT1=
EXTT2=
EXTT3=
EXTT4=
EXTT5=
EXTT6=
EXTT7=
EXTT8=
EXTT9=
EXTT10=
EXTT11=
EXTT12=
EXTT13=
EXTT14=
EXTT15=
EXTT16=
EXTT17=
PLAYORDER=
